<svg width="100" height="104" viewBox="0 0 100 104" fill="none" xmlns="http://www.w3.org/2000/svg">
<path d="M60.6411 53.8646C66.0634 50.6562 69.2316 44.7675 68.9472 38.4727C68.7441 34.2693 66.9976 30.2894 63.992 27.2841C60.9863 24.2788 57.0262 22.5325 52.802 22.3294C48.1311 22.1061 43.6835 23.7711 40.292 26.9998C36.9614 30.1878 35.0525 34.6551 35.0525 39.2646C35.0525 42.0668 37.327 44.3411 40.1296 44.3411C42.9321 44.3411 45.2067 42.0668 45.2067 39.2646C45.2067 37.3964 45.9581 35.6501 47.3188 34.3506C48.6794 33.051 50.4666 32.4012 52.3349 32.4824C55.8077 32.6448 58.6306 35.4877 58.793 38.9397C58.9149 41.4576 57.6354 43.8334 55.4624 45.133C50.2026 48.2398 46.9329 53.9052 46.9329 59.9158C46.9329 62.718 49.2074 64.9922 52.01 64.9922C54.8126 64.9922 57.0871 62.718 57.0871 59.9158C57.0871 57.4384 58.4072 55.1845 60.6411 53.8646Z" fill="#6BBDFF"/>
<path d="M51.9897 81.6838C54.7937 81.6838 57.0668 79.4109 57.0668 76.6073C57.0668 73.8036 54.7937 71.5308 51.9897 71.5308C49.1857 71.5308 46.9126 73.8036 46.9126 76.6073C46.9126 79.4109 49.1857 81.6838 51.9897 81.6838Z" fill="#6BBDFF"/>
<path d="M42.6846 0.842071C32.897 2.61369 23.8608 7.15166 16.5497 13.96C6.40077 23.435 0.539397 36.2875 0.0593246 50.1614C-0.445618 64.0497 4.50345 77.2759 13.9716 87.4449C23.445 97.5942 36.2958 103.455 50.1825 103.96C64.0693 104.464 77.2996 99.4938 87.4433 90.0383C94.5894 83.375 99.6972 74.904 102.215 65.5077L102.378 64.8996C104.767 55.5111 104.5 45.6838 101.631 36.463C100.794 33.779 97.9522 32.3027 95.2684 33.1394C92.5846 33.9761 91.1083 36.8184 91.9448 39.5024C94.2679 46.9159 94.4792 54.8358 92.5589 62.3948C90.586 70.15 86.4245 77.1294 80.559 82.6221C63.6557 98.3188 37.122 97.3904 21.3979 80.5202C13.773 72.3379 9.79526 61.6847 10.2001 50.5239C10.5853 39.3577 15.3108 29.0182 23.4927 21.392C29.3778 15.9045 36.6405 12.258 44.5062 10.8334C52.1743 9.43998 60.0621 10.2079 67.2894 13.0486C69.8977 14.0628 72.8449 12.7921 73.8645 10.1639C74.8788 7.55523 73.6084 4.60774 70.9805 3.58823C62.0013 0.0679281 52.2105 -0.894533 42.6846 0.842071Z" fill="#6BBDFF"/>
</svg>
