<svg width="24" height="24" viewBox="0 0 24 24" fill="none" xmlns="http://www.w3.org/2000/svg">
<path d="M21.5985 11.25C22.509 11.25 23.25 10.509 23.25 9.5985V3.9015C23.25 2.991 22.509 2.25 21.5985 2.25H2.4015C1.491 2.25 0.75 2.991 0.75 3.9015V9.59925C0.75 10.509 1.491 11.25 2.4015 11.25H3V12.75H2.4015C1.491 12.75 0.75 13.491 0.75 14.4015V20.0993C0.75 21.009 1.491 21.75 2.4015 21.75H21.5993C22.509 21.75 23.25 21.009 23.25 20.0985V14.4008C23.25 13.491 22.509 12.75 21.5985 12.75H21V11.25H21.5985ZM2.25 9.5985V3.9015C2.25 3.8175 2.3175 3.75 2.4015 3.75H21.5993C21.6825 3.75 21.75 3.8175 21.75 3.9015V9.59925C21.75 9.6825 21.6825 9.75 21.5985 9.75H20.25H3.75H2.4015C2.3175 9.75 2.25 9.6825 2.25 9.5985ZM21.75 14.4015V20.0993C21.75 20.1825 21.6825 20.25 21.5985 20.25H2.4015C2.3175 20.25 2.25 20.1825 2.25 20.0985V14.4008C2.25 14.3175 2.3175 14.25 2.4015 14.25H3.75H20.25H21.5985C21.6825 14.25 21.75 14.3175 21.75 14.4015ZM19.5 12.75H4.5V11.25H19.5V12.75Z" fill="#40189D"/>
<path d="M10.5 18C10.9142 18 11.25 17.6642 11.25 17.25C11.25 16.8358 10.9142 16.5 10.5 16.5C10.0858 16.5 9.75 16.8358 9.75 17.25C9.75 17.6642 10.0858 18 10.5 18Z" fill="#40189D"/>
<path d="M7.5 18C7.91421 18 8.25 17.6642 8.25 17.25C8.25 16.8358 7.91421 16.5 7.5 16.5C7.08579 16.5 6.75 16.8358 6.75 17.25C6.75 17.6642 7.08579 18 7.5 18Z" fill="#40189D"/>
<path d="M4.5 18C4.91421 18 5.25 17.6642 5.25 17.25C5.25 16.8358 4.91421 16.5 4.5 16.5C4.08579 16.5 3.75 16.8358 3.75 17.25C3.75 17.6642 4.08579 18 4.5 18Z" fill="#40189D"/>
<path d="M19.5 16.5H14.25C13.836 16.5 13.5 16.836 13.5 17.25C13.5 17.664 13.836 18 14.25 18H19.5C19.914 18 20.25 17.664 20.25 17.25C20.25 16.836 19.914 16.5 19.5 16.5Z" fill="#40189D"/>
<path d="M10.5 7.5C10.9142 7.5 11.25 7.16421 11.25 6.75C11.25 6.33579 10.9142 6 10.5 6C10.0858 6 9.75 6.33579 9.75 6.75C9.75 7.16421 10.0858 7.5 10.5 7.5Z" fill="#40189D"/>
<path d="M7.5 7.5C7.91421 7.5 8.25 7.16421 8.25 6.75C8.25 6.33579 7.91421 6 7.5 6C7.08579 6 6.75 6.33579 6.75 6.75C6.75 7.16421 7.08579 7.5 7.5 7.5Z" fill="#40189D"/>
<path d="M4.5 7.5C4.91421 7.5 5.25 7.16421 5.25 6.75C5.25 6.33579 4.91421 6 4.5 6C4.08579 6 3.75 6.33579 3.75 6.75C3.75 7.16421 4.08579 7.5 4.5 7.5Z" fill="#40189D"/>
<path d="M14.25 7.5H19.5C19.914 7.5 20.25 7.164 20.25 6.75C20.25 6.336 19.914 6 19.5 6H14.25C13.836 6 13.5 6.336 13.5 6.75C13.5 7.164 13.836 7.5 14.25 7.5Z" fill="#40189D"/>
</svg>
