<svg width="31" height="14" viewBox="0 0 31 14" fill="none" xmlns="http://www.w3.org/2000/svg">
<path d="M2.21429 9.33333C3.4372 9.33333 4.42857 10.378 4.42857 11.6667C4.42857 12.9553 3.4372 14 2.21429 14C0.991369 14 1.24576e-08 12.9553 2.78247e-08 11.6667C4.31919e-08 10.378 0.991369 9.33333 2.21429 9.33333Z" fill="#268BDD"/>
<path d="M2.21429 2.64051e-08C3.4372 4.09882e-08 4.42857 1.04467 4.42857 2.33333C4.42857 3.622 3.4372 4.66667 2.21429 4.66667C0.99137 4.66667 1.23756e-07 3.622 1.39124e-07 2.33333C1.54491e-07 1.04467 0.99137 1.1822e-08 2.21429 2.64051e-08Z" fill="#268BDD"/>
<path d="M11.0714 9.33333C12.2943 9.33333 13.2857 10.378 13.2857 11.6667C13.2857 12.9553 12.2943 14 11.0714 14C9.84851 14 8.85714 12.9553 8.85714 11.6667C8.85714 10.378 9.84851 9.33333 11.0714 9.33333Z" fill="#268BDD"/>
<path d="M11.0714 1.32025e-07C12.2943 1.46609e-07 13.2857 1.04467 13.2857 2.33333C13.2857 3.622 12.2943 4.66667 11.0714 4.66667C9.84851 4.66667 8.85714 3.622 8.85714 2.33333C8.85714 1.04467 9.84851 1.17442e-07 11.0714 1.32025e-07Z" fill="#268BDD"/>
<path d="M19.9286 9.33333C21.1515 9.33333 22.1429 10.378 22.1429 11.6667C22.1429 12.9553 21.1515 14 19.9286 14C18.7057 14 17.7143 12.9553 17.7143 11.6667C17.7143 10.378 18.7057 9.33333 19.9286 9.33333Z" fill="#268BDD"/>
<path d="M19.9286 2.37646e-07C21.1515 2.52229e-07 22.1429 1.04467 22.1429 2.33333C22.1429 3.622 21.1515 4.66667 19.9286 4.66667C18.7057 4.66667 17.7143 3.622 17.7143 2.33333C17.7143 1.04467 18.7057 2.23063e-07 19.9286 2.37646e-07Z" fill="#268BDD"/>
<path d="M28.7857 9.33333C30.0086 9.33333 31 10.378 31 11.6667C31 12.9553 30.0086 14 28.7857 14C27.5628 14 26.5714 12.9553 26.5714 11.6667C26.5714 10.378 27.5628 9.33333 28.7857 9.33333Z" fill="#268BDD"/>
<path d="M28.7857 3.43266e-07C30.0086 3.57849e-07 31 1.04467 31 2.33333C31 3.622 30.0086 4.66667 28.7857 4.66667C27.5628 4.66667 26.5714 3.622 26.5714 2.33333C26.5714 1.04467 27.5628 3.28683e-07 28.7857 3.43266e-07Z" fill="#268BDD"/>
</svg>
