<svg width="24" height="24" viewBox="0 0 24 24" fill="none" xmlns="http://www.w3.org/2000/svg">
<path d="M21.6786 8.99121L22.6187 8.05109C24.4616 6.2082 24.4618 3.22526 22.6187 1.38213C20.7758 -0.460757 17.7929 -0.460991 15.9497 1.38213C15.0687 2.26315 2.36438 14.9675 1.87918 15.4526C1.76119 15.5706 1.66922 15.7288 1.62863 15.9047L0.0256462 22.8509C-0.12951 23.5233 0.473349 24.1313 1.14985 23.9751L8.09607 22.3721C8.27213 22.3315 8.42982 22.2399 8.54813 22.1216L20.3528 10.3169L21.6987 11.6628L19.2447 14.1169C18.8786 14.4829 18.8786 15.0765 19.2447 15.4426C19.6108 15.8087 20.2043 15.8087 20.5704 15.4426L23.6873 12.3257C24.0532 11.9599 24.0534 11.3659 23.6873 10.9999L21.6786 8.99121ZM2.18977 21.8111L3.07519 17.9744L6.02649 20.9257L2.18977 21.8111ZM7.88527 20.133L3.86776 16.1155L15.0096 4.9737L19.0271 8.99117L7.88527 20.133ZM20.3529 7.66549L16.3353 3.64802L17.2755 2.7079C18.3856 1.59776 20.1826 1.59752 21.293 2.7079C22.4032 3.81804 22.4034 5.61504 21.293 6.72541L20.3529 7.66549Z" fill="#40189D"/>
</svg>
