<svg width="18" height="24" viewBox="0 0 18 24" fill="none" xmlns="http://www.w3.org/2000/svg">
<path d="M17.1787 8.83125C17.1193 8.70094 17.0238 8.59038 16.9035 8.51263C16.7832 8.43488 16.6432 8.39319 16.5 8.3925H10.6687L13.1587 1.7625C13.2011 1.64915 13.2154 1.52724 13.2004 1.40718C13.1854 1.28711 13.1416 1.17244 13.0728 1.07297C13.0039 0.973501 12.9119 0.892175 12.8048 0.835935C12.6977 0.779696 12.5785 0.750212 12.4575 0.75H6.4125C6.26782 0.750625 6.1264 0.793087 6.0053 0.872266C5.88421 0.951445 5.7886 1.06396 5.73 1.19625L0.817501 12.2775C0.767034 12.3914 0.745748 12.5161 0.755567 12.6404C0.765386 12.7646 0.805999 12.8844 0.873738 12.989C0.941476 13.0936 1.03421 13.1796 1.14355 13.2394C1.25289 13.2991 1.3754 13.3307 1.5 13.3313H6.5625L5.5125 17.28L4.1775 22.3088C4.13345 22.473 4.14651 22.6473 4.21455 22.8032C4.28258 22.959 4.40155 23.0871 4.55195 23.1664C4.70234 23.2458 4.87524 23.2716 5.04227 23.2398C5.20931 23.208 5.36057 23.1203 5.47125 22.9913L17.0625 9.63375C17.1567 9.5252 17.2178 9.39184 17.2384 9.24957C17.259 9.10729 17.2383 8.96209 17.1787 8.83125ZM6.46125 19.5638L8.25 12.7725C8.26739 12.6938 8.2737 12.613 8.26875 12.5325C8.25635 12.3422 8.17189 12.1637 8.03256 12.0334C7.89323 11.9031 7.7095 11.8308 7.51875 11.8313H2.64375L6.90375 2.25H11.3738L8.88375 8.88C8.84129 8.99364 8.82703 9.11589 8.84219 9.23626C8.85736 9.35662 8.90149 9.47151 8.97082 9.57107C9.04014 9.67063 9.13258 9.75189 9.24021 9.80787C9.34783 9.86385 9.46743 9.89289 9.58875 9.8925H14.8387L6.46125 19.5638Z" fill="#40189D"/>
</svg>
