<svg width="20" height="21" viewBox="0 0 20 21" fill="none" xmlns="http://www.w3.org/2000/svg">
<path d="M3.99856 18.9815H1.99868V16.9805H3.99856V18.9815ZM1.99868 2.98437H3.99856V4.98424H1.99868V2.98437ZM15.9948 2.98437H17.9958V4.98424H15.9948V2.98437ZM-0.00231934 16.9805V18.9815C-0.00231934 20.0712 0.907431 20.9814 1.99868 20.9814H3.99856C5.08943 20.9814 5.99956 20.0712 5.99956 18.9815H10.9976C11.5454 18.9815 11.9977 18.5292 11.9977 17.9802C11.9977 17.4324 11.5454 16.9805 10.9976 16.9805H5.99956C5.99956 15.8892 5.08943 14.9802 3.99856 14.9802V6.98524C5.08943 6.98524 5.99956 6.07549 5.99956 4.98424H13.9946C13.9946 6.07549 14.9036 6.98524 15.9948 6.98524V11.9832C15.9948 12.5315 16.4467 12.9834 16.9946 12.9834C17.5436 12.9834 17.9958 12.5315 17.9958 11.9832V6.98524C19.0856 6.98524 19.9957 6.07549 19.9957 4.98424V2.98437C19.9957 1.89349 19.0856 0.983368 17.9958 0.983368H15.9948C14.9036 0.983368 13.9946 1.89349 13.9946 2.98437H5.99956C5.99956 1.89349 5.08943 0.983368 3.99856 0.983368H1.99868C0.907431 0.983368 -0.00231934 1.89349 -0.00231934 2.98437V4.98424C-0.00231934 6.07549 0.907431 6.98524 1.99868 6.98524V14.9802C0.907431 14.9802 -0.00231934 15.8892 -0.00231934 16.9805Z" fill="#40189D"/>
<path d="M16.1498 16.6925C15.9585 16.7892 15.8033 16.9445 15.7065 17.1354L15.4999 17.5482L14.7919 15.7775L16.5627 16.4855L16.1498 16.6925ZM13.3665 13.0535C13.2413 13.0055 13.1089 12.9822 12.9754 12.9864C12.4358 12.9995 11.9985 13.4465 11.9985 13.9865C11.9985 14.1114 12.021 14.2362 12.0672 14.3525L14.4668 20.3544C14.6187 20.7324 14.9865 20.9814 15.3945 20.9814C15.7737 20.9814 16.1209 20.7665 16.2893 20.4275L17.3453 18.3312L19.4415 17.2752C19.7809 17.1065 19.9958 16.7592 19.9958 16.3805C19.9958 15.9725 19.7468 15.6042 19.3688 15.4524L13.3665 13.0535Z" fill="#40189D"/>
</svg>
