<svg width="24" height="23" viewBox="0 0 24 23" fill="none" xmlns="http://www.w3.org/2000/svg">
<path d="M1.50093 10.3767C1.23012 10.3767 0.963242 10.248 0.791742 10.0051C0.508242 9.60246 0.595304 9.0401 0.986429 8.74857L11.4864 0.919202C11.878 0.626776 12.4249 0.717203 12.7084 1.1194C12.9919 1.52205 12.9048 2.08441 12.5137 2.37593L2.01368 10.2053C1.85837 10.3214 1.67855 10.3767 1.50093 10.3767Z" fill="#40189D"/>
<path d="M22.4992 10.3767C22.3216 10.3767 22.1417 10.3209 21.9864 10.2053L11.4864 2.37595C11.0949 2.08442 11.0078 1.52161 11.2917 1.11942C11.5752 0.717667 12.1221 0.62679 12.5137 0.919216L23.0137 8.74859C23.4052 9.04012 23.4923 9.60292 23.2084 10.0051C23.0373 10.2481 22.77 10.3767 22.4992 10.3767Z" fill="#40189D"/>
<path d="M15.5 14.2444C15.017 14.2444 14.625 13.8413 14.625 13.3446C14.142 13.3446 13.75 12.9415 13.75 12.4444C13.75 11.9477 14.142 11.545 14.625 11.545C15.5901 11.545 16.375 12.3521 16.375 13.3446C16.375 13.8417 15.983 14.2444 15.5 14.2444Z" fill="#40189D"/>
<path d="M15.5 22.3423C15.017 22.3423 14.625 21.9392 14.625 21.4426V13.3446C14.625 12.8479 15.017 12.4448 15.5 12.4448C15.983 12.4448 16.375 12.8479 16.375 13.3446V21.4426C16.375 21.9397 15.983 22.3423 15.5 22.3423Z" fill="#40189D"/>
<path d="M14.625 13.3446L9.375 13.3446C8.892 13.3446 8.5 12.9415 8.5 12.4448C8.5 11.9481 8.892 11.545 9.375 11.545H14.625C15.108 11.545 15.5 11.9482 15.5 12.4448C15.5 12.9415 15.108 13.3446 14.625 13.3446Z" fill="#40189D"/>
<path d="M8.49956 14.2444C8.01656 14.2444 7.625 13.8413 7.625 13.3446C7.625 12.3521 8.40987 11.545 9.375 11.545C9.858 11.545 10.25 11.9481 10.25 12.4448C10.25 12.9415 9.858 13.3446 9.375 13.3446L9.37369 13.3446C9.37369 13.8417 8.983 14.2444 8.49956 14.2444Z" fill="#40189D"/>
<path d="M8.5 22.3423C8.017 22.3423 7.625 21.9392 7.625 21.4426V13.3446C7.625 12.8479 8.017 12.4448 8.5 12.4448C8.983 12.4448 9.375 12.8479 9.375 13.3446V21.4426C9.375 21.9397 8.983 22.3423 8.5 22.3423Z" fill="#40189D"/>
<path d="M21.625 22.3423H2.375C1.892 22.3423 1.5 21.9392 1.5 21.4425C1.5 20.9458 1.892 20.5427 2.375 20.5427H21.625C22.108 20.5427 22.5 20.9458 22.5 21.4425C22.5 21.9392 22.108 22.3423 21.625 22.3423Z" fill="#40189D"/>
<path d="M4.125 22.3423C3.642 22.3423 3.25 21.9392 3.25 21.4426V9.47692C3.25 8.98024 3.642 8.57714 4.125 8.57714C4.608 8.57714 5 8.98024 5 9.47692V21.4426C5 21.9397 4.608 22.3423 4.125 22.3423Z" fill="#40189D"/>
<path d="M19.875 22.3423C19.392 22.3423 19 21.9392 19 21.4426V9.47692C19 8.98024 19.392 8.57714 19.875 8.57714C20.358 8.57714 20.75 8.98024 20.75 9.47692V21.4426C20.75 21.9397 20.358 22.3423 19.875 22.3423Z" fill="#40189D"/>
<path d="M22.4992 10.3767L19.875 10.3767C19.392 10.3767 19 9.97359 19 9.47692C19 8.98024 19.392 8.57714 19.875 8.57714H22.5C22.983 8.57714 23.375 8.98024 23.375 9.47691C23.375 9.97359 22.9822 10.3767 22.4992 10.3767Z" fill="#40189D"/>
<path d="M4.125 10.3767L1.50093 10.3767C1.01793 10.3767 0.625 9.97359 0.625 9.47691C0.625 8.98024 1.017 8.57714 1.5 8.57714H4.125C4.608 8.57714 5 8.98024 5 9.47692C5 9.97359 4.608 10.3767 4.125 10.3767Z" fill="#40189D"/>
</svg>
