<svg width="18" height="25" viewBox="0 0 18 25" fill="none" xmlns="http://www.w3.org/2000/svg">
<path d="M9.87074 13.4493C9.38773 13.4493 8.99573 13.0462 8.99573 12.5495V5.35134C8.99573 4.85467 9.38773 4.45157 9.87074 4.45157C10.3537 4.45157 10.7457 4.85467 10.7457 5.35134V12.5495C10.7457 13.0462 10.3542 13.4493 9.87074 13.4493Z" fill="#ADADAD"/>
<path d="M4.62073 13.4493C4.13773 13.4493 3.74573 13.0462 3.74573 12.5495V5.35134C3.74573 4.85467 4.13773 4.45157 4.62073 4.45157C5.10373 4.45157 5.49573 4.85467 5.49573 5.35134V12.5495C5.49573 13.0462 5.10417 13.4493 4.62073 13.4493Z" fill="#ADADAD"/>
<path d="M9.87049 13.4493C9.64649 13.4493 9.42249 13.3616 9.25187 13.1857L6.62687 10.4864C6.28518 10.135 6.28518 9.56544 6.62687 9.21408C6.96812 8.86272 7.52287 8.86272 7.86412 9.21408L10.4891 11.9134C10.8308 12.2648 10.8308 12.8343 10.4891 13.1857C10.3185 13.3616 10.0945 13.4493 9.87049 13.4493Z" fill="#ADADAD"/>
<path d="M4.62049 13.4493C4.39649 13.4493 4.1725 13.3616 4.00187 13.1857C3.66018 12.8343 3.66018 12.2648 4.00187 11.9134L6.62687 9.21408C6.96812 8.86272 7.52286 8.86272 7.86411 9.21408C8.2058 9.56544 8.2058 10.135 7.86411 10.4864L5.23912 13.1857C5.06849 13.3616 4.84449 13.4493 4.62049 13.4493Z" fill="#ADADAD"/>
<path d="M15.1207 6.25112C14.6377 6.25112 14.2457 5.84802 14.2457 5.35135V2.65203C14.2457 2.15536 14.6377 1.75226 15.1207 1.75226C15.6037 1.75226 15.9957 2.15536 15.9957 2.65203V5.35135C15.9957 5.84802 15.6042 6.25112 15.1207 6.25112Z" fill="#ADADAD"/>
<path d="M15.1205 3.5518C14.6375 3.5518 14.2455 3.1487 14.2455 2.65202V2.65112C13.7625 2.65112 13.3705 2.24892 13.3705 1.7518C13.3705 1.25513 13.7625 0.852478 14.2455 0.852478C15.2106 0.852478 15.9955 1.65957 15.9955 2.65202C15.9955 3.1487 15.6039 3.5518 15.1205 3.5518Z" fill="#ADADAD"/>
<path d="M14.2456 2.65202H2.87061C2.38761 2.65202 1.99561 2.24892 1.99561 1.75225C1.99561 1.25558 2.38761 0.852478 2.87061 0.852478H14.2456C14.7286 0.852478 15.1206 1.25558 15.1206 1.75225C15.1206 2.24892 14.7291 2.65202 14.2456 2.65202Z" fill="#ADADAD"/>
<path d="M16.8707 7.15089C16.3877 7.15089 15.9957 6.74779 15.9957 6.25111V6.25021C15.5127 6.25021 15.1207 5.84802 15.1207 5.35089C15.1207 4.85422 15.5127 4.45157 15.9957 4.45157C16.9609 4.45157 17.7457 5.25866 17.7457 6.25111C17.7457 6.74779 17.3542 7.15089 16.8707 7.15089Z" fill="#ADADAD"/>
<path d="M16.8707 23.3468C16.3877 23.3468 15.9957 22.9437 15.9957 22.447V6.25112C15.9957 5.75445 16.3877 5.35135 16.8707 5.35135C17.3537 5.35135 17.7457 5.75445 17.7457 6.25112V22.447C17.7457 22.9437 17.3542 23.3468 16.8707 23.3468Z" fill="#ADADAD"/>
<path d="M15.9956 6.25111H2.87061C2.38761 6.25111 1.99561 5.84802 1.99561 5.35134C1.99561 4.85467 2.38761 4.45157 2.87061 4.45157H15.9956C16.4786 4.45157 16.8706 4.85467 16.8706 5.35134C16.8706 5.84802 16.479 6.25111 15.9956 6.25111Z" fill="#ADADAD"/>
<path d="M15.9957 24.2466C15.5127 24.2466 15.1207 23.8435 15.1207 23.3468C15.1207 22.8501 15.5127 22.447 15.9957 22.447H15.9966C15.9966 21.9503 16.3877 21.5472 16.8712 21.5472C17.3542 21.5472 17.7457 21.9503 17.7457 22.447C17.7457 23.439 16.9609 24.2466 15.9957 24.2466Z" fill="#ADADAD"/>
<path d="M15.9956 24.2466H2.87061C2.38761 24.2466 1.99561 23.8435 1.99561 23.3468C1.99561 22.8501 2.38761 22.447 2.87061 22.447H15.9956C16.4786 22.447 16.8706 22.8501 16.8706 23.3468C16.8706 23.8435 16.479 24.2466 15.9956 24.2466Z" fill="#ADADAD"/>
<path d="M2.87061 24.2466C1.42292 24.2466 0.245605 23.0359 0.245605 21.5473C0.245605 21.0506 0.637605 20.6475 1.12061 20.6475C1.60361 20.6475 1.99561 21.0506 1.99561 21.5473C1.99561 22.0435 2.38804 22.447 2.87061 22.447C3.35361 22.447 3.74561 22.8501 3.74561 23.3468C3.74561 23.8435 3.35404 24.2466 2.87061 24.2466Z" fill="#ADADAD"/>
<path d="M1.12061 22.447C0.637605 22.447 0.245605 22.0439 0.245605 21.5472V3.55178C0.245605 3.05511 0.637605 2.65201 1.12061 2.65201C1.60361 2.65201 1.99561 3.05511 1.99561 3.55178V21.5472C1.99561 22.0439 1.60404 22.447 1.12061 22.447Z" fill="#ADADAD"/>
<path d="M2.87061 6.25111C1.42292 6.25111 0.245605 5.04047 0.245605 3.5518C0.245605 2.06312 1.42292 0.852478 2.87061 0.852478C3.35361 0.852478 3.74561 1.25558 3.74561 1.75225C3.74561 2.24892 3.35361 2.65202 2.87061 2.65202C2.39636 2.65202 1.99561 3.06412 1.99561 3.5518C1.99561 4.03947 2.39636 4.45157 2.87061 4.45157C3.35361 4.45157 3.74561 4.85467 3.74561 5.35134C3.74561 5.84801 3.35404 6.25111 2.87061 6.25111Z" fill="#ADADAD"/>
</svg>
