<svg width="28" height="28" viewBox="0 0 28 28" fill="none" xmlns="http://www.w3.org/2000/svg">
<path d="M11.3077 18.7583C11.3567 18.8204 11.4049 18.8895 11.4696 18.9849C11.8494 19.495 12.2212 19.9955 12.5861 20.5179L13.2861 21.5066C13.367 21.6208 13.474 21.7139 13.5982 21.7781C13.7224 21.8423 13.8603 21.8759 14.0001 21.8759C14.14 21.8759 14.2778 21.8423 14.402 21.7781C14.5262 21.7139 14.6333 21.6208 14.7141 21.5066L15.7361 20.0655C15.9916 19.7076 16.2567 19.3498 16.5534 18.9683C16.5989 18.9018 16.6461 18.8405 16.7161 18.7513C17.732 17.4256 18.8301 16.1621 20.1654 14.6711C21.2564 13.452 21.9617 11.937 22.1922 10.3173C22.4227 8.69756 22.1681 7.04587 21.4604 5.5708C20.7528 4.09573 19.6239 2.86343 18.2164 2.02953C16.8089 1.19563 15.1858 0.797534 13.5521 0.885517C11.4209 1.01968 9.42195 1.96502 7.96611 3.5273C6.51026 5.08957 5.70807 7.15012 5.72436 9.28552C5.75188 11.3927 6.58904 13.4085 8.06236 14.9153C9.22542 16.1254 10.3094 17.409 11.3077 18.7583ZM14.0001 5.68752C14.7178 5.68665 15.4196 5.89874 16.0167 6.29693C16.6138 6.69513 17.0794 7.26152 17.3544 7.92443C17.6295 8.58733 17.7017 9.31693 17.5619 10.0209C17.4221 10.7248 17.0766 11.3715 16.5691 11.879C16.0616 12.3865 15.4149 12.732 14.711 12.8718C14.007 13.0116 13.2774 12.9394 12.6145 12.6644C11.9516 12.3893 11.3852 11.9238 10.987 11.3266C10.5888 10.7295 10.3767 10.0277 10.3776 9.31002C10.3788 8.34963 10.7608 7.4289 11.4399 6.7498C12.119 6.0707 13.0397 5.68868 14.0001 5.68752Z" fill="#40189D"/>
<path d="M14.0002 11.1921C14.3714 11.193 14.7345 11.0838 15.0437 10.8782C15.3528 10.6727 15.594 10.3802 15.7369 10.0375C15.8797 9.69492 15.9178 9.31763 15.8462 8.95339C15.7746 8.58914 15.5967 8.2543 15.3348 7.99121C15.0729 7.72811 14.7389 7.54858 14.375 7.47531C14.0111 7.40204 13.6336 7.43833 13.2904 7.57958C12.9471 7.72084 12.6534 7.96072 12.4464 8.26889C12.2395 8.57705 12.1286 8.93967 12.1277 9.31088C12.1272 9.80844 12.3241 10.2859 12.6751 10.6385C13.0261 10.9912 13.5026 11.1903 14.0002 11.1921Z" fill="#40189D"/>
<path d="M19.3498 18.2709C18.9123 18.7906 18.4984 19.3008 18.1038 19.8153C18.0504 19.8844 17.9349 20.0401 17.9349 20.0401C17.654 20.4024 17.4029 20.7401 17.1596 21.0814L16.1411 22.5173C15.8986 22.8595 15.5775 23.1385 15.2049 23.3311C14.8323 23.5237 14.419 23.6243 13.9996 23.6243C13.5801 23.6243 13.1668 23.5237 12.7942 23.3311C12.4216 23.1385 12.1006 22.8595 11.858 22.5173L11.158 21.5285C10.808 21.0263 10.458 20.5546 10.1001 20.0751C10.1001 20.0751 9.9575 19.8704 9.92513 19.8336C9.5025 19.271 9.09212 18.7548 8.68525 18.2586C6.02 19.1048 4.375 20.5783 4.375 22.3125C4.375 25.0565 8.51288 27.125 14 27.125C19.4871 27.125 23.625 25.0565 23.625 22.3125C23.625 20.5861 21.9958 19.1188 19.3498 18.2709Z" fill="#40189D"/>
</svg>
