<svg width="24" height="24" viewBox="0 0 24 24" fill="none" xmlns="http://www.w3.org/2000/svg">
<g clip-path="url(#clip0_18_14135)">
<path d="M12 24C9.62685 23.9996 7.30713 23.2957 5.33407 21.9771C3.36101 20.6585 1.82322 18.7844 0.91512 16.592C0.00701723 14.3995 -0.23062 11.9869 0.232253 9.65942C0.695126 7.33188 1.83772 5.19385 3.51559 3.51563C5.77688 1.31949 8.81151 0.101308 11.9636 0.124344C15.1158 0.147381 18.1323 1.40979 20.3612 3.63874C22.5902 5.8677 23.8526 8.88419 23.8756 12.0363C23.8987 15.1885 22.6805 18.2231 20.4843 20.4844C19.3728 21.6022 18.0506 22.4885 16.5943 23.092C15.1379 23.6954 13.5764 24.004 12 24ZM12 2.34375C6.67543 2.34375 2.34371 6.67547 2.34371 12C2.34371 17.3245 6.67543 21.6562 12 21.6562C17.3245 21.6562 21.6562 17.3245 21.6562 12C21.6562 6.67547 17.3245 2.34375 12 2.34375Z" fill="#40189D"/>
<path d="M6.84375 13.5938C6.52854 13.5938 6.2204 13.5003 5.95831 13.3252C5.69622 13.15 5.49195 12.9011 5.37132 12.6099C5.25069 12.3187 5.21913 11.9982 5.28062 11.6891C5.34212 11.3799 5.49391 11.0959 5.7168 10.8731C5.93969 10.6502 6.22367 10.4984 6.53283 10.4369C6.84198 10.3754 7.16243 10.4069 7.45365 10.5276C7.74487 10.6482 7.99378 10.8525 8.16891 11.1146C8.34403 11.3767 8.4375 11.6848 8.4375 12C8.4375 12.4227 8.26959 12.8281 7.9707 13.127C7.67182 13.4259 7.26644 13.5938 6.84375 13.5938ZM6.84375 11.25C6.69542 11.25 6.55041 11.294 6.42707 11.3764C6.30374 11.4588 6.20761 11.5759 6.15084 11.713C6.09408 11.85 6.07922 12.0008 6.10816 12.1463C6.1371 12.2918 6.20853 12.4255 6.31342 12.5303C6.41831 12.6352 6.55195 12.7067 6.69743 12.7356C6.84292 12.7645 6.99372 12.7497 7.13076 12.6929C7.26781 12.6362 7.38494 12.54 7.46735 12.4167C7.54976 12.2934 7.59375 12.1483 7.59375 12C7.59375 11.8011 7.51473 11.6103 7.37408 11.4697C7.23343 11.329 7.04266 11.25 6.84375 11.25Z" fill="#40189D"/>
<path d="M12 13.5938C11.6848 13.5938 11.3766 13.5003 11.1145 13.3252C10.8524 13.15 10.6482 12.9011 10.5275 12.6099C10.4069 12.3187 10.3753 11.9982 10.4368 11.6891C10.4983 11.3799 10.6501 11.0959 10.873 10.8731C11.0959 10.6502 11.3799 10.4984 11.6891 10.4369C11.9982 10.3754 12.3187 10.4069 12.6099 10.5276C12.9011 10.6482 13.15 10.8525 13.3251 11.1146C13.5003 11.3767 13.5937 11.6848 13.5937 12C13.5937 12.4227 13.4258 12.8281 13.1269 13.127C12.828 13.4259 12.4227 13.5938 12 13.5938ZM12 11.25C11.8516 11.25 11.7066 11.294 11.5833 11.3764C11.46 11.4588 11.3638 11.5759 11.3071 11.713C11.2503 11.85 11.2354 12.0008 11.2644 12.1463C11.2933 12.2918 11.3648 12.4255 11.4696 12.5303C11.5745 12.6352 11.7082 12.7067 11.8537 12.7356C11.9991 12.7645 12.1499 12.7497 12.287 12.6929C12.424 12.6362 12.5412 12.54 12.6236 12.4167C12.706 12.2934 12.75 12.1483 12.75 12C12.75 11.8011 12.671 11.6103 12.5303 11.4697C12.3897 11.329 12.1989 11.25 12 11.25Z" fill="#40189D"/>
<path d="M17.1562 13.5938C16.841 13.5938 16.5329 13.5003 16.2708 13.3252C16.0087 13.15 15.8044 12.9011 15.6838 12.6099C15.5632 12.3187 15.5316 11.9982 15.5931 11.6891C15.6546 11.3799 15.8064 11.0959 16.0293 10.8731C16.2522 10.6502 16.5361 10.4984 16.8453 10.4369C17.1544 10.3754 17.4749 10.4069 17.7661 10.5276C18.0573 10.6482 18.3062 10.8525 18.4814 11.1146C18.6565 11.3767 18.75 11.6848 18.75 12C18.75 12.4227 18.5821 12.8281 18.2832 13.127C17.9843 13.4259 17.5789 13.5938 17.1562 13.5938ZM17.1562 11.25C17.0079 11.25 16.8629 11.294 16.7395 11.3764C16.6162 11.4588 16.5201 11.5759 16.4633 11.713C16.4065 11.85 16.3917 12.0008 16.4206 12.1463C16.4496 12.2918 16.521 12.4255 16.6259 12.5303C16.7308 12.6352 16.8644 12.7067 17.0099 12.7356C17.1554 12.7645 17.3062 12.7497 17.4432 12.6929C17.5803 12.6362 17.6974 12.54 17.7798 12.4167C17.8622 12.2934 17.9062 12.1483 17.9062 12C17.9062 11.8011 17.8272 11.6103 17.6865 11.4697C17.5459 11.329 17.3551 11.25 17.1562 11.25Z" fill="#40189D"/>
<path d="M7.28153 11.1094H6.40637C6.09571 11.1094 5.84387 11.3612 5.84387 11.6719V12.1875C5.84387 12.4982 6.09571 12.75 6.40637 12.75H7.28153C7.59219 12.75 7.84403 12.4982 7.84403 12.1875V11.6719C7.84403 11.3612 7.59219 11.1094 7.28153 11.1094Z" fill="#40189D"/>
<path d="M12.4379 11.1797H11.5627C11.2521 11.1797 11.0002 11.4315 11.0002 11.7422V12.2578C11.0002 12.5685 11.2521 12.8203 11.5627 12.8203H12.4379C12.7485 12.8203 13.0004 12.5685 13.0004 12.2578V11.7422C13.0004 11.4315 12.7485 11.1797 12.4379 11.1797Z" fill="#40189D"/>
<path d="M17.5942 11.1797H16.719C16.4083 11.1797 16.1565 11.4315 16.1565 11.7422V12.2578C16.1565 12.5685 16.4083 12.8203 16.719 12.8203H17.5942C17.9048 12.8203 18.1567 12.5685 18.1567 12.2578V11.7422C18.1567 11.4315 17.9048 11.1797 17.5942 11.1797Z" fill="#40189D"/>
</g>
<defs>
<clipPath id="clip0_18_14135">
<rect width="24" height="24" fill="white"/>
</clipPath>
</defs>
</svg>
