<svg width="114" height="107" viewBox="0 0 114 107" fill="none" xmlns="http://www.w3.org/2000/svg">
<path d="M56.2932 68.0488L56.2948 68.0503C56.5938 68.3351 56.9664 68.476 57.3743 68.4601L56.2932 68.0488ZM56.2932 68.0488L33.7892 46.7113M56.2932 68.0488L33.7892 46.7113M57.8006 79.0446L57.7987 79.0447C57.6351 79.051 57.4694 79.0547 57.3021 79.0547C54.1967 79.0547 51.2621 77.8832 48.9987 75.7313L26.5 54.3982C24.3769 52.3858 24.2881 49.0329 26.301 46.9101L57.8006 79.0446ZM57.8006 79.0446C61.0863 78.9121 64.1105 77.4877 66.3048 75.0381M57.8006 79.0446L66.3048 75.0381M33.7892 46.7113C33.7892 46.7113 33.7892 46.7113 33.7892 46.7113M33.7892 46.7113L33.7892 46.7113M33.7892 46.7113C31.6665 44.6983 28.3136 44.787 26.3012 46.91L33.7892 46.7113ZM66.3048 75.0381C66.3723 74.9639 66.4336 74.8907 66.4897 74.8208L66.3048 75.0381ZM94.7054 82.2002L94.7052 82.2005C93.0804 84.6321 93.7325 87.9216 96.1646 89.5473C97.0683 90.1522 98.0932 90.4414 99.1051 90.4414C100.811 90.4414 102.491 89.6169 103.512 88.0879C109.717 78.807 113 68.0564 113 57C113 52.2622 112.406 47.5535 111.235 43.0033L111.235 43.0032C110.506 40.1704 107.619 38.4658 104.785 39.1939L104.785 39.194C101.952 39.9234 100.246 42.8117 100.976 45.6444C101.925 49.3302 102.406 53.1514 102.406 57C102.406 65.9497 99.7455 74.6626 94.7054 82.2002ZM82.7775 19.6149L82.7776 19.615C85.1841 21.2776 88.4831 20.6743 90.1464 18.2682L90.1466 18.268C91.8091 15.8616 91.207 12.5625 88.7996 10.899L88.7996 10.899C79.4272 4.42339 68.4296 1 56.9999 1C42.044 1 27.9775 6.82641 17.402 17.402C6.8264 27.9775 1 42.044 1 57C1 71.956 6.8264 86.0225 17.402 96.598C27.9775 107.174 42.044 113 56.9999 113C67.239 113 77.2591 110.21 85.9763 104.929C88.4789 103.413 89.2786 100.156 87.763 97.6539L87.7629 97.6537C86.2463 95.1512 82.9896 94.3527 80.4873 95.8681L81.0054 96.7234L80.4873 95.8681C73.427 100.144 65.3055 102.406 56.9999 102.406C31.964 102.406 11.5937 82.0359 11.5937 57C11.5937 31.9641 31.964 11.5938 56.9999 11.5938C66.2718 11.5938 75.1833 14.3673 82.7775 19.6149ZM66.4901 74.8202L111.831 18.4243C113.664 16.1445 113.302 12.8103 111.022 10.9777C108.743 9.14431 105.407 9.50655 103.574 11.7866L58.3527 68.035C58.0904 68.2954 57.7497 68.4448 57.3751 68.46L66.4901 74.8202Z" fill="#5C44F1" stroke="#5C44F1" stroke-width="2"/>
</svg>
