<svg width="24" height="24" viewBox="0 0 24 24" fill="none" xmlns="http://www.w3.org/2000/svg">
<path d="M3.37638 24C2.47488 24 1.63048 23.6505 0.99031 23.0103C0.329514 22.3495 -0.0215789 21.471 0.00176485 20.5368C0.0251086 19.6025 0.419608 18.7427 1.11261 18.1157L11.7361 8.50401C10.8963 6.21145 11.456 3.59465 13.2031 1.84753C14.7919 0.258847 17.1325 -0.367684 19.3115 0.212956C19.5544 0.277644 19.7444 0.467112 19.8096 0.709924C19.8749 0.952689 19.8055 1.21186 19.6277 1.38961L17.1156 3.90178L17.6128 6.38788L20.0989 6.88509L22.611 4.37292C22.7888 4.19512 23.0478 4.12575 23.2907 4.19104C23.5335 4.25629 23.723 4.44618 23.7877 4.68914C24.3682 6.86812 23.7418 9.20872 22.1531 10.7975C20.4059 12.5447 17.7892 13.1042 15.4966 12.2645L5.88494 22.888C5.25794 23.581 4.39816 23.9755 3.4639 23.9989C3.4347 23.9996 3.40549 24 3.37638 24ZM17.6221 1.40635C16.3517 1.42153 15.1137 1.92591 14.1976 2.84198C12.7416 4.29801 12.3458 6.53038 13.2128 8.39704C13.3426 8.67651 13.2753 9.00791 13.0468 9.21468L2.05615 19.1586C1.65162 19.5246 1.42132 20.0265 1.40768 20.5719C1.39404 21.1173 1.59898 21.6301 1.98476 22.0159C2.37054 22.4017 2.88326 22.6079 3.42874 22.5929C3.97413 22.5793 4.47607 22.349 4.84207 21.9445L14.786 10.9538C14.9927 10.7253 15.3241 10.6581 15.6036 10.7878C17.4702 11.6548 19.7025 11.259 21.1586 9.80301C22.0746 8.88702 22.579 7.64882 22.5942 6.37846L20.8272 8.14565C20.6609 8.31191 20.4226 8.38405 20.1921 8.33798L16.8772 7.67502C16.5989 7.61934 16.3813 7.40179 16.3257 7.1234L15.6627 3.80859C15.6166 3.57806 15.6888 3.3397 15.855 3.17348L17.6221 1.40635Z" fill="#40189D"/>
<path d="M3.47626 21.2269C3.86459 21.2269 4.17939 20.9121 4.17939 20.5237C4.17939 20.1354 3.86459 19.8206 3.47626 19.8206C3.08793 19.8206 2.77313 20.1354 2.77313 20.5237C2.77313 20.9121 3.08793 21.2269 3.47626 21.2269Z" fill="#40189D"/>
</svg>
