<svg width="24" height="24" viewBox="0 0 24 24" fill="none" xmlns="http://www.w3.org/2000/svg">
<path d="M21.8906 4.26562H11.7468L11.4454 1.84772C11.3138 0.794344 10.4139 0 9.35236 0H2.10938C0.946266 0 0 0.946266 0 2.10938V17.625C0 18.7881 0.946266 19.7344 2.10938 19.7344H8.03827L8.33583 22.1523C8.46727 23.2035 9.36708 24 10.4289 24H21.8906C23.0537 24 24 23.0537 24 21.8906V6.375C24 5.21189 23.0537 4.26562 21.8906 4.26562ZM2.10938 18.3281C1.72167 18.3281 1.40625 18.0127 1.40625 17.625V2.10938C1.40625 1.72167 1.72167 1.40625 2.10938 1.40625H9.35236C9.70622 1.40625 10.0062 1.671 10.05 2.02191C10.1519 2.83922 11.9816 17.5174 12.0827 18.3281H2.10938ZM9.69019 21.6445L9.45511 19.7344H11.3415L9.69019 21.6445ZM22.5938 21.8906C22.5938 22.2783 22.2783 22.5938 21.8906 22.5938H10.7285L13.4052 19.4975C13.5422 19.343 13.6036 19.1378 13.5753 18.9339L11.9221 5.67188H21.8906C22.2783 5.67188 22.5938 5.9873 22.5938 6.375V21.8906Z" fill="#40189D"/>
</svg>
